<svg width="100" height="100" viewBox="0 0 100 100" fill="none" xmlns="http://www.w3.org/2000/svg">
<path d="M34.5356 63.6895C34.9854 67.03 37.7523 69.647 41.1193 69.8018C43.9525 69.9321 46.8306 70 50 70C53.1694 70 56.0475 69.9321 58.8807 69.8018C62.2477 69.647 65.0146 67.03 65.4644 63.6895C65.7579 61.5094 66 59.2752 66 57C66 54.7248 65.7579 52.4906 65.4644 50.3105C65.0146 46.97 62.2477 44.353 58.8807 44.1982C56.0475 44.0679 53.1694 44 50 44C46.8306 44 43.9525 44.0679 41.1193 44.1982C37.7523 44.353 34.9854 46.97 34.5356 50.3105C34.2421 52.4906 34 54.7248 34 57C34 59.2752 34.2421 61.5094 34.5356 63.6895Z" stroke="#141B34" stroke-width="3"/>
<path d="M41 44V39C41 34.0294 45.0294 30 50 30C54.9706 30 59 34.0294 59 39V44" stroke="#141B34" stroke-width="3" stroke-linecap="round" stroke-linejoin="round"/>
<path d="M49.9922 57H50.0102" stroke="#141B34" stroke-width="4" stroke-linecap="round" stroke-linejoin="round"/>
</svg>
