<svg width="100" height="100" viewBox="0 0 100 100" fill="none" xmlns="http://www.w3.org/2000/svg">
<path d="M31 42.3735C31.2081 38.1741 31.8307 35.5558 33.6933 33.6933C35.5558 31.8307 38.1741 31.2081 42.3735 31M69 42.3735C68.7919 38.1741 68.1693 35.5558 66.3067 33.6933C64.4442 31.8307 61.8259 31.2081 57.6265 31M57.6265 69C61.8259 68.7919 64.4442 68.1693 66.3067 66.3067C68.1693 64.4442 68.7919 61.8259 69 57.6265M42.3735 69C38.1741 68.7919 35.5558 68.1693 33.6933 66.3067C31.8307 64.4442 31.2081 61.8259 31 57.6265" stroke="#141B34" stroke-width="3" stroke-linecap="round" stroke-linejoin="round"/>
<path d="M61 60L60.5955 58.3023C60.2613 56.8994 59.1979 55.7851 57.8122 55.3857L53 53.9988L52.9993 51.0635C54.7927 49.8531 55.9993 47.5909 55.9993 45C55.9993 41.134 53.313 38 49.9993 38C46.6856 38 43.9993 41.134 43.9993 45C43.9993 47.5909 45.2059 49.8531 46.9993 51.0635L47 53.9988L42.2177 55.3988C40.8749 55.7919 39.8351 56.858 39.4757 58.2102L39 60" stroke="#141B34" stroke-width="3" stroke-linecap="round" stroke-linejoin="round"/>
</svg>
